<svg version="1.2" xmlns="http://www.w3.org/2000/svg" viewBox="0 0 640 640" width="512" height="512">
	<style>
		.s0 { fill: #ffffff } 
		.s1 { fill: #000000 } 
	</style>
	<path id="Layer 1" fill-rule="evenodd" class="s0" d="m75 0h490c41.42 0 75 33.58 75 75v490c0 41.42-33.58 75-75 75h-490c-41.42 0-75-33.58-75-75v-490c0-41.42 33.58-75 75-75z"/>
	<g>
		<path id="svg_1" fill-rule="evenodd" class="s1" d="m319.99 7.97c-176.7 0-319.99 143.27-319.99 319.99 0 141.39 91.68 261.3 218.83 303.63 16 2.96 21.88-6.96 21.88-15.41 0-7.63-0.32-32.84-0.45-59.56-89.03 19.36-107.8-37.77-107.8-37.77-14.55-36.99-35.53-46.83-35.53-46.83-29.03-19.88 2.21-19.44 2.21-19.44 32.13 2.24 49.04 32.95 49.04 32.95 28.56 48.92 74.89 34.76 93.13 26.6 2.89-20.68 11.15-34.81 20.32-42.8-71.08-8.07-145.8-35.52-145.8-158.14 0-34.93 12.52-63.49 32.97-85.88-3.33-8.08-14.29-40.61 3.08-84.68 0 0 26.87-8.61 88.03 32.8 25.51-7.07 52.88-10.64 80.05-10.76 27.2 0.12 54.62 3.68 80.17 10.76 61.07-41.38 87.92-32.8 87.92-32.8 17.4 44.08 6.48 76.63 3.15 84.68 20.52 22.39 32.93 50.95 32.93 85.88 0 122.9-74.88 149.93-146.11 157.85 11.48 9.92 21.73 29.4 21.73 59.24 0 42.79-0.37 77.28-0.37 87.8 0 8.52 5.77 18.47 22 15.35 127.07-42.35 218.63-162.27 218.63-303.58 0-176.69-143.27-319.99-320-319.99l-0.02 0.11z"/>
	</g>
</svg>