<svg xmlns="http://www.w3.org/2000/svg" shape-rendering="geometricPrecision" text-rendering="geometricPrecision" image-rendering="optimizeQuality" fill-rule="evenodd" clip-rule="evenodd" viewBox="0 0 457 511.955"><g fill-rule="nonzero"><path fill="red" d="M224.822.07c21.004-.948 29.586 7.844 46.971 17.73l63.009 36.269 65.124 37.57 25.192 14.386c4.347 2.506 10.853 6.041 14.627 8.988 8.67 6.766 15.797 18.929 16.831 29.953.512 5.442.397 11.341.395 16.878l-.01 24.019.005 79.007.012 67.261c.001 10.006.096 20.007-.122 30.003-.237 10.936-3.809 20.092-10.671 28.563-6.113 7.548-14.654 11.505-22.909 16.259l-24.029 13.843-69.381 39.96c-27.493 15.748-54.762 31.97-82.505 47.264-4.042 2.227-9.656 3.408-14.214 3.837-17.627.75-22.539-2.919-37.164-11.496l-16.436-9.448-68.239-39.38-61.045-35.174-19.984-11.4c-4.092-2.373-9.87-5.71-13.508-8.61-8.819-7.03-15.308-18.371-16.326-29.658-.517-5.728-.394-11.616-.389-17.418l.026-25.268-.023-81.683.011-64.503c.002-11.23-.408-24.207.738-35.237 1.273-7.798 5.125-15.253 10.084-21.351 6.035-7.424 15.849-12.138 24.073-16.924l27.466-15.827 67.061-38.573 53.611-30.908c8.491-4.885 17.07-10.065 25.706-14.676 5.114-2.73 10.294-3.662 16.013-4.256z"/><path fill="#fff" d="M224.538 92.783c14.914-1.345 22.893 4.812 35.098 11.77l32.073 18.432 43.888 24.958c7.935 4.497 15.904 8.798 23.653 13.614 17.174 10.674 15.456 27.8 15.436 45.047l-.028 39.126.014 51.19c.002 17.327 3.089 41.011-13.501 51.978-5.767 3.813-12.291 7.383-18.322 10.82l-32.035 18.228-35.606 20.372c-10.884 6.366-29.833 18.879-41.723 21.036-13.715 1.944-22.404-4.177-33.546-10.634l-24.849-14.311-53.783-30.824c-8.623-4.96-17.734-9.536-25.906-15.179-15.554-10.742-12.947-31.387-12.943-47.879l.018-44.965-.011-44.752c-.003-2.416-.054-4.884-.011-7.305.157-6.24-.369-12.549.519-18.753 2.689-18.738 15.988-23.802 30.423-32.044l34.948-19.865 42.306-24.216c10.221-5.813 22.369-14.272 33.888-15.844z"/><path fill="#FC0106" d="M228.177 106.425c3.554.051 6.463.942 9.584 2.644 7.522 4.103 15.051 8.583 22.436 12.918l37.196 21.596 36.405 20.969c6.288 3.632 13.653 7.457 19.406 11.727 3.727 2.765 6.958 6.832 7.215 11.597.429 7.926.254 16.379.251 24.35l-.021 45.616.036 43.843c.003 7.572.19 15.268-.257 22.812-.331 5.589-4.379 9.943-8.938 12.72-7.192 4.38-14.577 8.477-21.881 12.669l-38.305 22.154-36.814 21.312c-6.006 3.469-12.071 7.109-18.156 10.425-2.32 1.264-4.255 1.527-6.835 1.759-3.358-.037-6.266-.486-9.255-2.116-7.185-3.92-14.466-8.308-21.541-12.415l-41.697-24.036c-17.462-10.095-35.69-20.281-52.779-31.012-3.782-2.375-7.336-7.483-7.643-12.045-.473-7.017-.273-14.378-.267-21.488l.03-41.124-.026-46.754c-.001-4.511.035-9.193-.001-13.675-.086-11.046-.729-19.669 9.72-26.288 7.137-4.52 14.622-8.54 22.009-12.747l33.481-19.374 39.72-22.961c7.353-4.231 18.844-12.226 26.927-13.076z"/><path fill="#fff" d="M178.705 181.353c5.068 2.107 12.825 6.962 17.722 9.821l23.416 13.427 40.716 23.524c15.766 8.972 33.376 18.711 48.769 28.132-4.186 1.66-12.627 6.885-16.908 9.348l-30.552 17.558c-27.398 15.855-55.581 32.416-83.186 47.814l.032-100.234c-.005-16.395-.205-33.025-.009-49.39z"/></g></svg>